<?xml version="1.0" encoding="UTF-8"?>
<!-- Created with Inkscape (http://www.inkscape.org/) -->
<svg width="1190" height="896" version="1.1" viewBox="0 0 1190 896" xmlns="http://www.w3.org/2000/svg">
 <path d="m720 880.44c-0.825-0.1796-11.85-0.82409-24.5-1.4322s-45.05-2.4448-72-4.0816-71.05-4.3152-98-5.9521c-171.61-10.423-200.69-12.848-234.5-19.556-30.968-6.1438-32.855-9.9527-7.6707-15.479 5.0439-1.1067 16.364-3.0435 25.156-4.3039l15.986-2.2917 0.69926-4.0961c0.9749-5.7107 3.4727-10.137 6.7972-12.045 2.542-1.4589 2.8663-2.2532 3.226-7.9021 0.41941-6.5866 2.1474-9.9739 6.897-13.52 2.795-2.0868 29.725-9.3129 65.91-17.685l24.5-5.6689 0.73997-14.734c0.77386-15.408 1.794-18.935 5.8495-20.222 1.6199-0.51413 1.9105-1.585 1.9105-7.039v-6.4326h-3.5989c-5.4481 0-10.146-2.6516-11.543-6.5156l-1.1986-3.3146-2.899 4.0019c-3.4676 4.7869-8.652 7.2803-19.777 9.5116-7.1063 1.4253-8.2689 1.9672-9.5543 4.4528-1.9596 3.7895-5.1145 5.2583-16.662 7.7575-14.101 3.0517-17.21 2.8635-21.367-1.2936-2.8514-2.8514-3.4-4.1205-3.4-7.8651 0-4.5562 2.3068-8.7583 5.8485-10.654 0.93139-0.49847 7.0168-1.6425 13.523-2.5422 11.703-1.6185 11.873-1.6133 15.9 0.48555 3.7233 1.9407 4.6308 2.0254 10.649 0.99422 13.575-2.3258 16.505-4.0063 19.505-11.188l1.5216-3.6416-5.2238-0.41139c-4.131-0.32532-6.079 0.0733-9.3117 1.9052-6.0769 3.4439-16.117 2.5124-21.228-1.9696-1.1616-1.0186-5.25-1.6804-13.184-2.1342-18.778-1.0742-30.625-2.5582-36.467-4.5683-14.461-4.9751-25.54-17.896-30.088-35.091-1.9572-7.3989-2.1634-26.753-0.49455-46.42 0.56007-6.6 1.0254-15.262 1.0341-19.25l0.01583-7.25h-6.5147c-5.9899 0-6.8078-0.26865-10.154-3.3352-3.182-2.9161-3.6984-4.0464-4.1087-8.995-0.27674-3.3372 0.0422-6.8948 0.7773-8.6694 1.6951-4.0924 7.1125-8.6542 12.025-10.126 2.2319-0.6687 3.8732-1.7015 3.6472-2.2951-0.22595-0.5936-2.0909-8.9543-4.1443-18.579s-6.8591-31.675-10.679-49c-10.274-46.591-17.674-84.384-18.407-94-1.2096-15.868 3.7748-30.955 13.538-40.979 13.844-14.214 43.765-20.078 102.41-20.074 36.646 3e-3 63.267 2.3114 79.926 6.9309l6.6638 1.8478 0.97173-3.5193c0.53445-1.9356 2.1559-4.7553 3.6032-6.2659 2.2946-2.395 2.6059-3.4952 2.4324-8.5938-0.68072-19.995-0.43151-26.017 1.2878-31.116 1.6674-4.9452 1.6776-5.7574 0.16711-13.212-1.3094-6.4621-1.4079-9.2422-0.52831-14.911 0.59463-3.8325 1.5032-8.0783 2.019-9.435 0.51585-1.3568 0.75187-2.6529 0.5245-2.8803-0.22736-0.22737-0.82346-3.3111-1.3246-6.8528-1.1148-7.8776 0.0962-16.545 3.2884-23.537 1.671-3.6601 2.3274-6.9215 2.3274-11.564 0-8.9489 2.4584-16.543 7.6296-23.567l4.393-5.9674-0.0493-10.402c-0.0621-13.104 3.002-23.333 10.223-34.13 10.275-15.362 22.536-20.65 31.875-13.746 5.4712 4.0451 7.6505 9.9918 7.8696 21.474 0.17511 9.1781 0.35636 10.026 2.2054 10.314 1.6048 0.24989 2.7242-1.0954 5.5035-6.6143 4.6373-9.2084 14.433-21.418 18.875-23.526 8.5692-4.0663 18.386-8e-3 23.161 9.5748 2.0784 4.1708 2.5634 6.5891 2.5634 12.781 0 4.2003-0.5294 10.273-1.1764 13.495-0.98973 4.9282-0.95005 5.9295 0.25 6.3089 0.78455 0.248 3.7396 2.7495 6.5668 5.5588 5.3435 5.3098 7.3434 9.8515 7.3541 16.7l6e-3 3.5924 8.7676 2.6895c18.551 5.6907 27.992 14.261 28.781 26.126 0.14617 2.2 1.0276 6.025 1.9586 8.5 2.4702 6.5662 1.5793 15.546-2.1387 21.559-1.5776 2.5512-4.3464 7.1816-6.1529 10.29-3.5691 6.1408-6.6756 9.1917-12.432 12.21-6.1966 3.2486-12.937 4.2591-19.425 2.9123-4.3662-0.90643-7.9378-0.91028-15.278-0.0165-15.241 1.8558-13.977 1.0866-13.34 8.1186 0.37093 4.0906-0.0436 8.6875-1.266 14.04-1.7358 7.6002-1.7393 8.2058-0.0763 13.481 1.9813 6.2853 2.2376 16.996 0.56555 23.637-0.8217 3.2633-0.83643 5.5646-0.0537 8.3838 0.59342 2.1372 1.0814 6.6726 1.0845 10.079 4e-3 4.3833 0.58851 7.1808 2.0006 9.5742 1.0973 1.8597 2.2921 5.598 2.6552 8.3072 0.53425 3.9864 1.5476 5.9025 5.3132 10.047 6.3746 7.0153 11.098 16.431 18.128 36.14 3.2842 9.2066 9.6055 24.952 14.047 34.989 7.179 16.223 8.3378 18.25 10.434 18.25 3.0614 0 9.025 5.2606 9.8955 8.7291 0.37375 1.4891 2.4581 4.637 4.6319 6.9953 2.1738 2.3583 4.2166 5.6087 4.5395 7.2232 0.67965 3.3983-1.6534 2.7396 32.095 9.0611l22.234 4.1648 6.5271-2.1721c7.5698-2.5191 20.183-4.9162 26.133-4.9665 4.0056-0.0339 4.1617-0.16127 5.2492-4.2849 0.61644-2.3375 6.769-26.75 13.672-54.25 6.9033-27.5 13.063-51.445 13.688-53.212 1.4027-3.9645 4.8042-7.7227 9.0441-9.9922 3.9152-2.0958 3.0865-2.0882 104.72-0.95046 81.668 0.91431 79.886 0.77939 83.517 6.3217 3.8643 5.8977 4.2757 3.734-13.659 71.833-21.335 81.009-22.127 83.718-24.772 84.66-0.55597 0.19804-0.7118 2.9974-0.37267 6.6949l0.58282 6.3546 26.666-0.72646c23.672-0.64491 27.021-0.54249 29.835 0.91236 5.172 2.6748 6.2026 5.9319 6.2026 19.605 0 18.368-1.4723 20-18.047 20h-9.953v247l3.25 1e-3c8.9568 4e-3 30.75 5.2258 30.75 7.3683 0 3.354-24.941 7.8346-87 15.629-13.475 1.6925-51.275 6.6433-84 11.002-100.16 13.34-103.25 13.693-109 12.441zm-51.445-23.332c9.5512-1.7521 13.398-3.152 14.544-5.293 1.0845-2.0264 0.96926-2.0873-2.733-1.4452-18.456 3.2007-25.584 3.8824-41.365 3.9559-19.636 0.0914-27.071-1.1221-41.93-6.8435-4.7136-1.815-15.32-4.7356-23.57-6.4903s-15.338-3.3976-15.75-3.6509c-0.4125-0.25325-0.75 1.768-0.75 4.4916 0 3.7918 0.41001 5.1105 1.75 5.6286 1.4836 0.57357 19.707 4.5374 20.86 4.5374 0.21446 0 0.38992-1.05 0.38992-2.3333 0-1.2833 0.26096-2.5943 0.57991-2.9132 0.57259-0.57259 7.2708 1.6039 20.92 6.7977 12.224 4.6514 18.942 5.4521 41.5 4.9458 11.275-0.25308 22.775-0.8774 25.555-1.3874zm82.445-132.48v-133.37l-5.25-0.52887c-2.8875-0.29087-5.5892-0.21146-6.0037 0.17647s-0.63953 60.302-0.5 133.14l0.25369 132.44 3 0.64149c1.65 0.35281 4.2375 0.69472 5.75 0.7598l2.75 0.11831zm12.5 132.04 5-1.296 0.25714-131.43c0.14142-72.289 0.08699-131.88-0.12096-132.43-0.21536-0.56959-3.0161-0.85417-6.5071-0.66118l-6.129 0.33882v133.41c0 106.07 0.25615 133.41 1.25 133.39 0.6875-0.0106 3.5-0.6025 6.25-1.3153zm-239.5-140.22v-129.44h-11.677l-0.65961 30.75c-0.36279 16.912-0.66041 74.689-0.66137 128.39l-2e-3 97.642 5.75 1.4506c3.1625 0.79785 6.0875 1.2698 6.5 1.0488s0.75-58.65 0.75-129.84zm15.403 127.49c0.31233-0.31234 0.58982-58.137 0.61664-128.5l0.04877-127.93-11.068-0.59981v259.81l4.9173-1.1075c2.7045-0.60911 5.1729-1.363 5.4852-1.6754zm122.1 2.043c13.925-1.9627 17.5-2.9751 17.5-4.9557 0-3.0151-5.6067-6.8215-13.291-9.0234-6.9335-1.9867-13.532-4.2789-20.491-7.1182-2.9609-1.208-3.6947-1.1205-7.5 0.89506-4.9402 2.6166-7.0076 2.7894-8.718 0.72853-1.5903-1.9162-0.0887-3.8897 4.9287-6.4777l3.5713-1.8421-2.6569-0.67515c-3.0215-0.76782-5.8124 0.45822-10.69 4.6962-3.9412 3.4242-6.5329 3.3116-6.9542-0.3021-0.31427-2.6958 2.7768-5.7431 9.3012-9.1695 2.543-1.3355 2.733-1.6798 1.2478-2.2604-2.6978-1.0546-5.9498 0.14107-11.119 4.0879-3.8278 2.9228-5.0008 3.3791-6.177 2.4029-3.3228-2.7576-1.3971-5.8502 6.3916-10.265 2.6777-1.5176 3.9024-2.7345 3.1932-3.1728-1.8266-1.1289-5.3655 0.16993-10.973 4.0275-4.1655 2.8654-5.488 3.3422-6.6331 2.3919-0.78664-0.65286-1.4302-1.7227-1.4302-2.3775 0-1.6312 4.7886-5.9772 8.8398-8.0226 3.2166-1.6241 3.2754-1.7573 1.595-3.6142-3.4367-3.7976-8.1258-1.985-13.956 5.3949-4.9335 6.2446-8.7518 8.5669-15.375 9.3513-6.3865 0.75639-13.008-1.5833-16.616-5.8716-1.4132-1.6795-2.7574-2.8658-2.987-2.6362-0.797 0.79701-3.5003 18.119-3.5003 22.429 0 5.4044 0.23069 5.5343 15.576 8.7743 6.6118 1.396 12.675 2.7557 13.473 3.0216 0.79822 0.26589 5.9495 2.1353 11.447 4.1543 5.4978 2.019 12.923 4.2548 16.5 4.9684 7.8036 1.5568 35.718 1.8386 45.504 0.45925zm-196.65-2.5008c3.7665-3.1693 4.7166-7.1817 2.7916-11.789-1.6903-4.0455-4.1814-5.6841-8.6414-5.6841-4.1845 0-6.6676 1.4566-8.4896 4.98-2.4078 4.6561-1.8899 7.8405 1.8896 11.62 4.2 4.2 8.1653 4.4781 12.45 0.87297zm263.15-1.8563c0-1.6259-3.0263-2.5839-8.2224-2.603-2.0473-8e-3 -10.778-1.8136-19.401-4.0136s-16.16-4-16.75-4-0.18045 0.89116 0.90875 1.9804c5.3881 5.3881 43.464 12.954 43.464 8.6363zm-375.15-5.0416c8.5078-4.3995 5.4898-18.593-4.0107-18.862-9.9544-0.28216-14.358 11.311-6.7336 17.727 3.4272 2.8838 6.6952 3.2291 10.744 1.1353zm585.65-125.16v-123.92l-11.5-0.59981v246.88l4.75 0.98363c2.6125 0.541 5.2 0.88968 5.75 0.77485 0.66016-0.13783 1-42.32 1-124.13zm14.779 122.15 2.7794-0.62349-0.0944-122.97-0.09433-122.97h-11.87v248.84l3.25-0.82235c1.7875-0.45228 4.5008-1.1029 6.0294-1.4458zm-225.28-13.871c0-12.247-0.6162-14.7-3.6923-14.7-0.71075 0-2.5138 1.3709-4.0067 3.0465-1.9216 2.1566-3.4548 2.9599-5.2492 2.75-3.8697-0.45262-3.7334-3.4176 0.33342-7.253 3.0334-2.8609 3.3378-3.5284 2.0836-4.5693-1.6218-1.346-2.4185-0.92476-8.0506 4.2569-3.1893 2.9342-5.749 2.9554-6.8612 0.0569-0.38957-1.0152 0.83628-2.8813 3.5207-5.3596 3.7832-3.4926 4.4725-5.9283 1.6777-5.9283-0.61964 0-3.2611 1.7998-5.8699 3.9996-4.3116 3.6356-4.8863 3.8566-6.3144 2.4286-0.86408-0.86411-1.571-1.9889-1.571-2.4996 0-1.1012 2.6639-3.8665 6.0607-6.2913l2.4393-1.7413-2.3608-1.948c-3.5446-2.9248-6.6594-2.5206-8.1411 1.0566-0.6845 1.6525-2.7766 4.3498-4.6491 5.9939-10.601 9.3081-26.046 10.597-34.807 2.9047l-3.4313-3.0127-0.59181 3.3048c-1.8918 10.564-2.1574 17.024-0.7574 18.424 4.1208 4.1208 14.238 7.1339 27.948 8.3232 6.6784 0.57934 16.582 2.3824 24.5 4.4606 14.104 3.7016 16.792 4.2094 23.54 4.4473l4.25 0.14983zm188-111.2v-120.5h-5.5437c-11.686 0-101.69 2.0104-116.21 2.5958l-15.25 0.61481v230.4l35.25 1.8202c19.388 1.0011 48.3 2.6002 64.25 3.5535s30.912 1.7958 33.25 1.8721l4.25 0.13885zm-517.5 113.47c11-0.60328 25.4-1.4056 32-1.783l12-0.68609-0.23106-5.3977c-0.12708-2.9688-0.41009-5.5768-0.62891-5.7956-0.21882-0.21882-16.346 1.6477-35.839 4.1477-19.493 2.5001-35.747 4.5456-36.121 4.5456-0.95149 0-0.84781 1.4283 0.32819 4.5214 0.90502 2.3804 1.3909 2.595 4.75 2.0981 2.058-0.30446 12.742-1.0472 23.742-1.6504zm92.75-3.9554 9.75-0.01365v-3.481c0-3.9684 0.32813-3.8293-12.909-5.4741-11.933-1.4828-11.091-1.8298-11.091 4.5717 0 5.3366 0.11216 5.5866 2.25 5.0137 1.2375-0.33164 6.6375-0.60913 12-0.61664zm-29.485-4.6167c3.01-0.602 3.0164-0.61836 3.6603-9.25 1.4103-18.908 2.4258-23.434 4.5253-20.167 0.52299 0.81375 1.2353 3.1629 1.5829 5.2202 0.54768 3.2417 1.0545 3.8105 3.7991 4.2638 1.7419 0.2877 7.2171 1.1997 12.167 2.0266 14.067 2.3499 13.5 2.5339 13.5-4.3831 0-4.6822-0.35956-6.0351-1.75-6.5847-0.9625-0.38042-6.5455-2.2039-12.407-4.0522-9.319-2.9387-11.139-3.2254-14.5-2.2842-2.436 0.68221-9.451 0.86248-19.158 0.49231l-15.315-0.58401-22.685 5.4534c-18.938 4.5526-45.767 11.238-62.435 15.558-3.2704 0.84756-3.75 1.3506-3.75 3.9333 0 1.7251 0.52186 2.9438 1.25 2.9191 0.6875-0.0233 22.148-2.8437 47.689-6.2675l46.439-6.2252 1.2289-4.8172c0.67588-2.6494 1.4983-5.0866 1.8276-5.4158 2.0787-2.0787 5.1042 8.1881 6.1202 20.768 0.33315 4.125 0.78046 8.0625 0.99404 8.75 0.42677 1.3738 2.6055 1.5691 7.2164 0.64694zm91.051-13.897c1.8718-6.4929 4.6106-10.135 8.1536-10.844l3.1762-0.63523-0.60869-11.26c-1.9448-35.979-3.5371-67.486-3.5371-69.99 0-2.8116-0.1124-2.8726-4.75-2.575l-4.75 0.30479-0.25937 50.459c-0.14265 27.753 0.11899 50.028 0.58143 49.5 0.46243-0.52766 1.3597-2.7594 1.9939-4.9594zm88.207-12.222c1.5194-5.0253 4.2945-8.2775 7.0634-8.2775 1.9805 0 1.9976-0.36388 1.211-25.75-0.43882-14.162-0.79785-41.388-0.79785-60.5v-34.75l-5.398 3.1e-4 1.6247 3.75c2.6718 6.1668 2.1593 16.919-1.1264 23.634-4.0599 8.2982-9.935 11.819-22.755 13.637-3.974 0.56362-7.3603 1.1595-7.5251 1.3243-0.36656 0.36656-3.9785 47.957-4.7931 63.154-0.32432 6.05-0.8195 12.854-1.1004 15.121l-0.51074 4.1207 4.439 1.1178c3.4783 0.87585 6.7857 3.2648 15.282 11.039l10.843 9.9209 1.133-6.6594c0.62313-3.6627 1.7074-8.5595 2.4096-10.882zm-55.189 12.811c0.93668-0.50129 3.5699-3.1254 5.8516-5.8314l4.1486-4.9199 1.5972-27.419c0.87848-15.08 2.9836-45.194 4.6779-66.919 3.5936-46.076 3.5699-57.282-0.13505-63.961-3.0837-5.559-6.9541-8.2038-16.776-11.464-6.9108-2.2939-34.161-9.6513-34.224-9.2406-0.0142 0.0913-0.29377 9.7285-0.62133 21.416l-0.59557 21.25h5.9204c5.8002 0 5.9449-0.0676 7.1239-3.3281 0.6619-1.8304 2.2963-4.3548 3.6321-5.6097l2.4286-2.2816-0.54535 7.8597-0.54534 7.8597 3.1251-4.1472c4.7904-6.3572 6.4012-6.2452 3.4328 0.23866-5.1761 11.306-5.1871 12.694-0.74411 94.409 0.88219 16.225 1.3706 34.282 1.0853 40.126-0.35046 7.1806-0.15419 10.99 0.60532 11.75 1.3506 1.3506 8.1752 1.488 10.558 0.2125zm141.74-208.85c-0.24086-0.24085-17.231-0.81334-37.755-1.2722-74.061-1.6557-90.362-1.8356-86.317-0.95266 2.2 0.4802 15.507 2.9392 29.571 5.4644 47.914 8.603 55.255 10.829 64.018 19.411 7.4568 7.3033 8.9115 11.97 8.9115 28.588 0 10.48-3.869 52.288-10.459 113.02-1.9408 17.885-1.9516 17.5 0.49155 17.5 3.2186 0 9.1993 2.8476 12.468 5.9363 1.65 1.5592 6.6 5.394 11 8.5217l8 5.6868 0.25481-100.73c0.14014-55.404 0.0577-100.93-0.18312-101.17zm-49.592 196.95 4.4801-2.7462 0.21424-9.4695c0.17864-7.8965 3.1009-38.488 11.46-119.97 1.4645-14.275 0.79855-25.718-1.7507-30.083-4.5478-7.787-11.635-10.377-45.968-16.802-60.722-11.363-79.103-13.674-88.416-11.118l-4.5 1.235 15.5 4.2971c31.889 8.8406 39.3 13.358 44.039 26.841 1.0786 3.0688 1.968 7.0533 1.9764 8.8546 8e-3 1.8012 0.34592 3.7788 0.75 4.3946 0.44337 0.67568 7.6287 1.5747 18.121 2.2672l17.386 1.1476 5.3636-4.0496c2.95-2.2273 5.3636-3.8591 5.3636-3.6264 0 0.23276-0.89012 2.3848-1.978 4.7824-2.5984 5.7265-2.6215 7.2504-0.0893 5.8952 1.063-0.56889 3.0595-1.4628 4.4368-1.9864l2.5041-0.95204-2.4351 3.5884c-4.6349 6.83-4.6928 7.9229-4.0145 75.814l0.63943 64 2.2184 0.69358c3.7231 1.164 9.9814-0.11684 14.698-3.0083zm-208.23-16.807c2.201-0.59796 2.25-0.92523 2.25-15.025v-14.413l-25.5 0.55975v29l4 0.66775c4.2189 0.70429 15.446 0.24369 19.25-0.78974zm31.25-33.878v-33.5h-3c-2.5638 0-3 0.3779-3 2.5989 0 3.6892-2.7032 8.9142-5.2952 10.235-1.2126 0.61799-4.4548 1.2456-7.2048 1.3948l-5 0.27114-0.30445 5.3132c-0.26952 4.7035-9e-3 5.5456 2.27 7.3383 4.8076 3.7816 5.5345 6.6205 5.5345 21.614v13.865l6.75 2.0677c3.7125 1.1372 7.3125 2.1204 8 2.1849 0.97746 0.0916 1.25-7.187 1.25-33.383zm-39.125-7.125c3.078-0.61561 3.125-0.71401 3.125-6.5499v-5.9249l-11.5 0.59981-0.30981 4.8729c-0.1704 2.6801-0.072 5.4926 0.21861 6.25 0.57006 1.4855 3.4983 1.7456 8.4662 0.75206zm-90.875-6.4446c9.8036-2.2237 12.244-3.0866 11.325-4.0052-1.4-1.4-17.325 2.0167-17.325 3.7171 0 1.6028 0.16804 1.6109 6 0.28807zm112-19.43c0-0.825-0.5625-1.5128-1.25-1.5283-0.6875-0.0156-9.35-0.68093-19.25-1.4786-26.027-2.0969-25.5-2.1281-25.5 1.5069v3h23c19.778 0 23-0.21014 23-1.5zm75.625-13.5c1.0927 0 1.375-2.5447 1.375-12.395v-12.395l-4.25-0.44929c-2.3375-0.24712-4.5875-0.26783-5-0.046-0.97483 0.52417-0.98137 24.721-7e-3 25.695 0.40868 0.40868 2.0399 0.48368 3.625 0.16667 1.5851-0.31704 3.5008-0.57641 4.257-0.57641zm-57.625-13.439v-13.439l-4.75-0.59306c-2.6125-0.32618-6.479-0.8157-8.5922-1.0878-2.1132-0.27213-3.6666-0.14533-3.452 0.28178 5.1969 10.344 6.157 13.249 6.5854 19.923 0.50223 7.8258 0.6599 8.0125 6.9589 8.2373l3.25 0.116zm-101.25 11.189c0.54567-0.6875 1.4699-2.825 2.0539-4.75s6.9742-21.881 14.2-44.347 12.995-40.967 12.819-41.115c-0.17604-0.14743-3.1112-0.50935-6.5226-0.80427l-6.2026-0.53621-1.4739 4.6509c-0.81065 2.558-6.1993 19.501-11.975 37.651-14.646 46.028-14.597 45.855-13.508 47 0.99809 1.0502 6.5611 3.2938 8.4898 3.4239 0.62015 0.0418 1.574-0.48642 2.1197-1.1739zm84.014-5.1363c-0.35143-4.378-1.397-8.0113-3.325-11.554-2.897-5.3228-9.4513-12.06-11.732-12.06-0.70979 0-10.026-0.9-20.704-2s-21.015-2-22.973-2h-3.5597l-4.3165 14.084c-2.3741 7.7461-4.1317 14.269-3.9058 14.495s12.751 1.3008 27.833 2.3887c28.862 2.0819 35.595 2.5584 40.309 2.8527l2.8869 0.18025zm144.06 0.97893c4.1328-2.1371 6.4648-6.86 6.4648-13.093 0-9.5207-5.1892-15.5-13.452-15.5-3.0484 0-5.0396 0.47179-5.2755 1.25-0.20845 0.6875-0.75682 7.7155-1.2186 15.618l-0.83963 14.368 5.5878-0.50834c3.0733-0.27958 7.0032-1.2402 8.7331-2.1348zm-244.37-16.637c2.6378-8.2745 4.6031-15.237 4.3674-15.473-0.23569-0.2357-8.5031-0.7264-18.372-1.0904-24.65-0.90928-27.756-0.20926-36.491 8.2242-3.637 3.5112-6.9141 6.384-7.2826 6.384-1.3049 0-0.6438-4.1309 1.2576-7.858 1.8217-3.5708 7.8557-9.802 11.427-11.801 1.3574-0.75965 1.4533-1.4888 0.57557-4.3763-0.70215-2.31-0.82802-12.881-0.37764-31.715l0.67555-28.25-9.8642 0.0153c-5.4253 8e-3 -10.437 0.37886-11.137 0.82319-0.91442 0.58034-1.7224 8.6733-2.8688 28.735-1.8739 32.793-1.3732 38.811 4.1708 50.123 6.6312 13.53 14.114 17.524 36.056 19.242 14.32 1.1217 20.117 1.6229 21.991 1.9016 0.59189 0.088 3.2343-6.61 5.8721-14.885zm117.55-39.813v-24.858l-6.1467-0.64245c-12.881-1.3463-22.966-0.73516-30.353 1.8392-4.866 1.6958-6.3903 1.9601-5 0.86698 6.239-4.9055 25.187-10.308 36.25-10.336l5.25-0.01314v-8h-11.288c-6.2084 0-16.652 0.66541-23.208 1.4787-11.189 1.388-12.06 1.6577-14.205 4.3986-1.5754 2.013-3.8235 3.289-7.2379 4.1081l-4.9527 1.1882-11.308 33.927 2.619 3.9576c3.2945 4.9783 9.2168 9.3124 14.783 10.818 4.9723 1.3454 41.778 5.7962 49.548 5.9917l5.25 0.13211zm-103.91-4.6425c3.3802-10.45 6.1582-19.9 6.1732-21 0.0246-1.8045-2.0738-15.348-2.8098-18.135-0.20768-0.78629-8.4703-1.3615-26.918-1.8739-14.64-0.40664-26.792-0.56612-27.003-0.35441-0.68613 0.68613-1.0506 58.331-0.37536 59.363 0.4034 0.61669 9.1125 1 22.721 1h22.067zm160.66-30.799c3.2566-2.9662 2.81-3.7007-2.25-3.7007h-4.5v4.0352c0 3.8617 0.0967 3.9853 2.25 2.875 1.2375-0.63808 3.2625-2.0824 4.5-3.2095zm-120.75-4.7663c3.575-0.57774 6.8825-1.4294 7.35-1.8925 1.3243-1.3119-2.0741-11.561-4.9777-15.011-1.4358-1.7063-3.8665-3.7519-5.4015-4.5457-8.4744-4.3823-44.868-7.005-85.471-6.1593-39.81 0.82912-51.021 2.3767-52.912 7.3047-0.35968 0.93731-0.21609 2.1421 0.31909 2.6773 0.5984 0.5984 19.574 1.0479 49.283 1.1674 64.014 0.25747 66.685 0.68313 74.135 11.811 4.3241 6.4596 5.1398 6.6741 17.675 4.6483zm33.681-9.3951 5.8186-0.67295-0.32507-9.0924c-0.39691-11.102 1.2723-16.406 6.0755-19.304 2.9466-1.7783 5.1607-1.9615 23.75-1.9653 19.976-4e-3 20.508-0.0572 20.796-2.0767 0.28879-2.02-0.4264-2.1178-28.233-3.8626-15.691-0.98453-29.608-1.5195-30.925-1.1888-3.2225 0.8088-10.969-1.6284-15.036-4.7309-1.8196-1.3879-3.8971-4.0133-4.6167-5.8343-0.71959-1.821-3.2139-5.1109-5.5429-7.3109-6.4377-6.0811-7.833-13.845-3.8794-21.588 1.1308-2.2146 1.041-3.6577-0.62245-10-3.484-13.284-9.1367-46.197-9.5166-55.412l-0.3711-9 4.4478 13 0.28621-9.75c0.15742-5.3625 0.64807-9.75 1.0903-9.75s2.2737 8.6625 4.0699 19.25c3.4844 20.539 8.8474 47.607 9.7081 49 0.2865 0.46357 2.455-0.93989 4.8188-3.1188 6.4621-5.9565 18.092-11.131 25.016-11.131 1.7472 0 3.3967-0.21991 3.6655-0.4887 0.26878-0.26878-0.3335-5.3313-1.3384-11.25-2.0852-12.281-3.4613-39.479-2.3668-46.777 0.88579-5.9069 1.8296-4.7365 3.6419 4.5161 1.3494 6.8894 2.9042 10.064 2.9136 5.95 7e-3 -3.2199 1.8959-9.9505 2.7914-9.9483 0.38665 9.3e-4 0.703 7.5384 0.703 16.75 0 11.83 0.56686 20.192 1.9304 28.476 1.8834 11.442 2.0214 11.801 5.6656 14.729 2.0544 1.6509 4.2459 4.5492 4.8701 6.4405 0.6242 1.8913 2.1928 4.1319 3.4858 4.9792s3.1501 3.6966 4.1269 6.3319c0.97679 2.6353 1.8839 4.9418 2.0158 5.1255 0.37931 0.5281 18.724 5.1237 20.542 5.146 1.1919 0.0146 1.8267-1.2704 2.3369-4.73 0.38523-2.6125 3.0941-16.9 6.0198-31.75 6.927-35.16 7.8986-42.303 7.9577-58.5 0.0446-12.213-0.22204-14.328-2.7967-22.182-1.5653-4.775-3.5903-9.3297-4.5-10.122-0.90974-0.79184-4.1291-2.2236-7.1541-3.1817-11.932-3.7794-37.568-19.987-47.866-30.262-2.9513-2.9448-5.4298-5.2189-5.5077-5.0535-0.078 0.16539-0.91827 2.5507-1.8673 5.3007l-1.7255 5 4.443 6.5c2.4437 3.575 8.55 10.89 13.57 16.255 9.1933 9.8268 27.353 25.746 29.368 25.744 0.59711-6e-4 2.6191-3.4117 4.4934-7.5803 4.8289-10.74 8.6881-12.759 12.395-6.483 2.3251 3.9361 2.1346 5.0644-0.85546 5.0644-2.5814 0-4.5735 3.2947-9.8252 16.25-2.1142 5.2154-5.1048 5.0029-13.495-0.95858-8.073-5.736-25.507-22.492-32.389-31.128l-5.0492-6.337-16.054 16.054 4.0702 4.4156c6.6219 7.1839 7.4088 9.8909 1.271 4.3726-6.7453-6.0646-10.081-7.7865-15.488-7.9958-2.3653-0.0915-4.0725-0.53532-3.7939-0.98618s3.2514-0.70773 6.606-0.57082l6.0994 0.24893 15.474-16.771-1.6864-2.8735c-3.1791-5.417-3.568-5.3688-12.412 1.5391-10.314 8.0558-20.446 18.753-23.936 25.271-7.731 14.436-20.071 71.154-24.253 111.47-1.623 15.648-3.9685 50.955-3.4204 51.489 0.18444 0.17971 4.6104 1.0538 9.8354 1.9423s11.605 2.3053 14.178 3.1483c9.6995 3.1782 16.309 10.378 18.837 20.52l1.1468 4.5999 5.3505-1.2438c2.9428-0.68407 7.9688-1.5466 11.169-1.9167zm398.32-0.58069c61.875-1.141 113.08-2.2661 113.79-2.5002 0.95216-0.31442 1.2136-2.7174 1-9.1921l-0.28917-8.7664-47.5 0.30177c-26.125 0.16597-78.325 0.70985-116 1.2086-40.81 0.54028-107.31 0.54314-164.5 7e-3 -180.79-1.6944-166.5-1.7326-168.1 0.44877-1.7849 2.441-1.8977 13.882-0.15102 15.312 0.79606 0.65165 27.942 1.464 74.75 2.2369 117.36 1.9379 161.39 2.6369 178.5 2.8338 8.8 0.10129 66.625-0.74937 128.5-1.8904zm-538.25-27.564c2.3375-0.2842 4.25-0.9259 4.25-1.426 0-3.9187-12.316-67.005-17.466-89.468-16.229-70.784-18.421-98.163-8.7764-109.62l2.7087-3.2191-3.3583 0.67165c-5.95 1.19-14.763 5.7336-18.432 9.5027-8.0648 8.2847-10.969 20.806-8.74 37.683 1.7691 13.396 7.3797 42.389 14.511 74.986 3.4894 15.95 8.9504 41.041 12.135 55.759l5.7911 26.759 6.5631-0.55324c3.6097-0.30428 8.4756-0.78577 10.813-1.07zm68.644-4.6442c0.29568-2.8875 0.80662-10.65 1.1354-17.25 1.8162-36.456 7.7173-75.139 16.933-111 5.5194-21.477 9.2691-31.741 14.305-39.157 4.4881-6.6091 14.533-16.397 24.469-23.843 3.6697-2.75 6.6927-5.2663 6.7178-5.5917 0.14967-1.9403-18.942-5.4012-38.504-6.9798-17.169-1.3855-71.623-0.71359-86.95 1.0729-22.706 2.6466-29.74 11.385-28.095 34.904 0.86626 12.39 5.6088 39.878 11.058 64.095 2.4135 10.725 6.2036 27.6 8.4224 37.5s5.8704 28.575 8.1147 41.5c2.2443 12.925 4.3213 24.729 4.6157 26.232l0.53522 2.7321 23.674 0.2869c13.021 0.1578 25.78 0.39086 28.353 0.51792l4.678 0.23102zm218.3 1.5932c1.1147-2.905-1.9687-6.5306-10.699-12.58-8.662-6.0022-10.577-8.9692-6.1888-9.591 4.4692-0.63344 16.881 8.9677 25.484 19.713 2.3127 2.8888 6.0794 2.5016 6.5295-0.67113 0.39939-2.8156-3.524-9.6379-7.9891-13.892-1.8343-1.7477-6.2601-4.9477-9.8351-7.1112-9.8622-5.9684-8.0829-9.7898 2.1692-4.6587 8.5502 4.2793 15.073 9.7621 18.831 15.829 2.59 4.1812 4.02 5.5811 5.5 5.3846 5.7628-0.76532-0.77576-13.025-10.943-20.518-10.218-7.5301-17.183-10.626-24.057-10.691-5.0727-0.0483-8.1637 0.82522-20 5.6516-7.7 3.1398-15.201 5.9918-16.668 6.3379-3.1481 0.74231-37.053-5.2076-57.695-10.125-7.9-1.8819-16.27-3.4216-18.6-3.4216-7.3216 0-16.276 8.1619-19.044 17.358l-1.3387 4.4482 3.173 0.56563c4.1919 0.74727 26.083 2.283 58.546 4.1071 24.169 1.3581 26.918 1.6999 32.895 4.0911 6.1709 2.4688 7.1252 2.5714 17.736 1.9085 12.459-0.77845 12.84-0.67313 20.005 5.5283 5.1037 4.4172 10.961 5.5398 12.191 2.3363zm124.91 0.075c-0.33385-0.86995-0.60699-3.12-0.60699-5v-3.4182h-34.846c-39.101 0-53.154 0.66192-53.154 2.5037 0 0.66233-1.086 2.376-2.4133 3.8082l-2.4133 2.604 7.1633 0.34336c3.9398 0.18885 25.099 0.43278 47.02 0.54206 35.984 0.17939 39.798 0.045 39.25-1.3831zm-48.902-2.0465c-0.38777-0.38775-0.70504-1.53-0.70504-2.5384 0-1.6352 0.92635-1.8333 8.5696-1.8333 8.315 0 8.5601 0.0669 8.25 2.25-0.29481 2.0758-0.90372 2.2723-7.8645 2.5384-4.1497 0.15861-7.8622-0.0289-8.25-0.41666zm21.884-0.99906c-1.0786-2.8107 0.72252-3.4818 8.5074-3.1696 6.6375 0.26619 7.4031 0.50374 7.4031 2.2969 0 1.7999-0.76329 2.029-7.6277 2.2899-6.4366 0.2446-7.73 0.0233-8.2828-1.4172zm202.69 2.4988c3.0334-1.5972 3.6906-2.7996 3.7085-6.7855l0.01531-3.414-63.165 0.66406c-34.741 0.36523-74.355 0.66405-88.031 0.66405-27.906 0-27.09-0.2377-24.85 7.2386l1.2249 4.0885 84.437-0.64238c61.47-0.46764 85.042-0.96086 86.661-1.8133zm-47.896-3.3236c-1.0855-2.8287 0.76326-3.5479 9.12-3.5479 8.5138 0 9.9879 0.56499 8.8963 3.4098-0.85357 2.2243-17.168 2.3494-18.016 0.13813zm26.287 0.78544c-0.36667-0.36666-0.66667-1.4917-0.66667-2.5 0-1.588 0.86185-1.8333 6.441-1.8333 6.676 0 8.5974 1.0439 6.5227 3.5438-1.2358 1.4891-10.972 2.1142-12.297 0.78953zm-340.67 2.3091c0-1.4892-7.92-2.6425-18.147-2.6425-5.1866 0-5.8533 0.22779-5.8533 2 0 1.8889 0.66667 2 12 2 9.4403 0 12-0.28957 12-1.3575zm303-17.229c37.336-0.35283 63.972-0.98868 64.646-1.5432 0.6304-0.51872 2.5168-5.9893 4.192-12.157 9.5751-35.252 33.546-126.7 33.924-129.42 0.37986-2.7311 0.0978-3.2772-1.9084-3.6943-1.2948-0.26922-40.379-0.90905-86.854-1.4218-91.23-1.0066-88.749-1.1189-91.057 4.1191-0.53369 1.211-6.8375 25.602-14.008 54.202s-15.265 60.42-17.986 70.712c-2.7215 10.291-4.9482 19.22-4.9482 19.84 0 0.82355 6.8225 0.97088 25.25 0.54524 13.888-0.32078 53.825-0.85327 88.75-1.1833zm-394.25-5.5507c3.1886-13.423 16.084-25.268 28.955-26.596 5.439-0.56135 5.4441-0.56512 3.4558-2.5534-3.2232-3.2232-10.453-3.3758-19.006-0.40136-7.979 2.7748-8.8845 1.8699-2.5732-2.5714 2.3795-1.6745 6.3512-3.186 10.103-3.8449 6.8207-1.1979 7.5532-2.921 2.0564-4.8372-4.0144-1.3994-13.346 0.22451-20.363 3.5434-9.813 4.6419-20.376 16.297-20.376 22.483 0 1.4814 0.84195 3.7332 1.871 5.004l1.871 2.3106 1.7392-3.4498c1.8047-3.5798 8.338-10.95 9.7066-10.95 0.43002 0-0.58018 2.6803-2.2449 5.9562-4.1475 8.1618-4.848 14.658-1.9726 18.294 3.3872 4.2828 5.3572 3.589 6.7767-2.3868zm269.94 2.158 1.1244-2.9788-5.6551-1.7076c-3.1103-0.93919-6.0826-2.0737-6.6051-2.5212-1.5966-1.3673 1.221-3.2462 5.2246-3.4841 9.8016-0.58233 9.5528-0.45454 11.024-5.6641 0.75095-2.659 1.1674-5.0326 0.92554-5.2745-0.94743-0.94744-19.541 2.9314-24.944 5.2037-3.1459 1.323-6.6489 2.4054-7.7845 2.4054-2.3595 0-47.433-8.4228-56.496-10.557-8.0552-1.8972-15.673-1.8046-19.966 0.24253-4.1957 2.0008-4.3513 2.6214-1.0357 4.132 3.3176 1.5116 11.128 8.738 14.615 13.521l2.7979 3.8386 55.589-0.171 3.9281 2.9969c3.8187 2.9134 4.2376 2.9969 15.031 2.9969h11.103zm-170.66-29.271c1.799-7.2875 6.5084-24.725 10.465-38.75 3.9569-14.025 8.2578-29.775 9.5574-35 2.3093-9.2839 2.3788-9.409 3.0538-5.5 0.37994 2.2 0.50858 5.9125 0.28587 8.25-0.22272 2.3375-0.212 4.25 0.0238 4.25 0.23581 0 1.4654-3.0375 2.7324-6.75 1.5963-4.6773 2.4095-6.0654 2.6484-4.5205 0.44149 2.8553-3.2412 21.088-6.3726 31.55-1.329 4.4403-2.4164 9.128-2.4164 10.417 0 1.7841 7.9108 19.337 9.5209 21.126 0.15949 0.17717 3.1424-1.9764 6.6286-4.7856 3.7902-3.0542 9.2079-6.1956 13.475-7.8136l7.1365-2.7059-2.4942-5.5085c-8.3059-18.343-15.87-36.741-19.682-47.869-4.6218-13.493-10.356-25.875-13.001-28.069-1.4256-1.1832-1.5843-0.42319-1.5843 7.585 0 10.704-1.4058 13.633-6.3128 13.151-2.8895-0.2835-3.3454-0.88019-6.1539-8.0528-1.6683-4.2606-3.3064-7.7481-3.6404-7.75-1.3693-8e-3 -11.032 10.552-13.192 14.416-1.9227 3.4401-2.5354 6.7703-3.5445 19.264-1.3569 16.801-2.2751 22.669-8.7054 55.637-2.4481 12.551-4.4511 23.631-4.4511 24.622 0 1.4886 1.783 2.1507 10.25 3.8058 5.6375 1.102 10.756 2.0595 11.376 2.1278 0.64248 0.0708 2.5294-5.5627 4.3964-13.126zm-19.57-2.1829c-2.8097-4.2881 1.8004-8.9147 5.348-5.3671 1.8371 1.8371 1.4279 5.6077-0.73426 6.7648-2.6451 1.4156-2.8014 1.3683-4.6138-1.3978zm7.2147-33.234c-1.4598-1.4598-0.62131-6.2872 1.2676-7.2982 2.6451-1.4156 2.8014-1.3683 4.6138 1.3978 1.24 1.8926 1.3484 2.8921 0.48787 4.5-1.0588 1.9784-4.9382 2.8314-6.3692 1.4004zm4.3835-36.773c-0.65709-0.79174-1.0497-2.7042-0.87245-4.25 0.2528-2.2047 0.90051-2.8773 3.005-3.1204 1.8636-0.2153 3.0075 0.29695 3.7464 1.6776 2.3892 4.4642-2.7603 9.4506-5.879 5.6928zm23.788 80.374 6.8557-3.0654-0.46838-5.1846c-0.43564-4.8221-5.0076-17.649-6.2997-17.673-0.31584-6e-3 -2.048 5.9514-3.8491 13.239s-3.4412 13.812-3.6444 14.5c-0.50195 1.6982-0.39193 1.6712 7.4059-1.8154zm43.024-8.4312c5.438-3.9068 11.931-6.5034 16.263-6.5034 3.4154 0 3.63-1.0072 0.76592-3.595-4.6927-4.2401-20.129-0.41728-27.642 6.8453-1.7875 1.7281-3.25 3.459-3.25 3.8465 0 0.57926 5.3692 2.4019 8.2477 2.7998 0.41122 0.0568 2.9379-1.4701 5.6148-3.3933zm-14.421-3.5685c5.4093-5.3877 17.14-11.925 21.443-11.95 4.2323-0.0248 5.3447-1.2127 3.5435-3.7842-3.2192-4.5961-17.197-1.5118-26.484 5.8442-5.3798 4.2609-9.9435 10.563-9.9435 13.73 0 2.2496 0.29062 2.4168 3.1911 1.8367 1.9492-0.38984 5.1599-2.5992 8.25-5.6769zm-52.924-108.68c3.3816-11.46 3.8001-12.402 7.2819-16.377 2.492-2.8452 3.1396-4.7688 4.1371-12.291 0.91344-6.8879 0.91103-10.05-0.0106-13.891-0.79347-3.3076-0.9316-7.5227-0.41234-12.582 1.1262-10.974 0.96762-14.856-0.91362-22.357-1.5466-6.1668-1.5534-7.3743-0.0901-15.809 0.89025-5.1311 1.3097-10.952 0.95737-13.288l-0.62698-4.1557h-9.1701c-8.1654 0-9.6741-0.29628-13.77-2.7042-6.9165-4.0661-15.9-14.19-15.9-17.919 0-4.8028 1.6249-6.8773 5.3868-6.8773 2.6235 0 4.706 1.2267 9.9665 5.8705 9.9183 8.7557 11.848 9.088 32.928 5.6711 9.4015-1.5239 19.722-3.4378 22.935-4.2532 5.2966-1.3442 6.231-1.3267 10.016 0.18774 6.786 2.7152 14.274 0.31333 17.307-5.5513l1.4367-2.7782-3.2312 0.92668c-1.7771 0.50968-5.0046 0.92669-7.172 0.92669-9.9376 0-22.199-11.505-15.822-14.847 2.5172-1.319 5.4542 0.11447 8.5498 4.173 3.3044 4.3323 5.4464 5.0884 10.535 3.7183 5.0713-1.3656 6.4146-3.0896 6.3449-8.1428-0.0601-4.3525-2.3396-7.8978-5.0842-7.9074-3.827-0.0134-9.2376-2.2824-10.676-4.477-1.9683-3.004-0.4169-6.5245 2.8657-6.5029 2.5029 0.0164 9.5365 2.3247 13.797 4.5278 2.6177 1.3536 2.9232 1.3166 3.8797-0.47078 1.7183-3.2106 1.207-4.8411-2.3743-7.5728-6.5572-5.0014-30.891-13.44-38.883-13.483-4.3251-0.0238-7.895-4.1863-7.5141-8.7616 0.30178-3.6251 0.43465-3.7388 5.3095-4.5459 6.2654-1.0372 7.2422-1.9524 5.5197-5.1711-1.5412-2.8798-4.1303-3.9583-8.8124-3.6706-2.5289 0.15535-4.0367-0.5417-6.5-3.005-4.6812-4.6812-10.678-6.2482-18.237-4.765-5.1932 1.019-6.4695 0.95569-9.2003-0.4565-3.203-1.6563-8.7792-2.149-11.688-1.0327-1.0039 0.38524-1.5818 1.8228-1.5818 3.9349 0 3.8812-1.6133 8.592-3.3126 9.6724-1.8284 1.1626-6.1496 0.92347-7.4874-0.41434-1.6818-1.6818-1.505-6.5906 0.8162-22.672 2.1014-14.558 2.6969-23.748 1.6092-24.836-1.1593-1.1593-9.5493 8.614-12.625 14.706-6.1041 12.092-7.3597 22.848-4.1181 35.279 1.5606 5.9844 1.5966 7.0211 0.30791 8.861-1.2566 1.7941-2.1195 1.9961-6.2088 1.4536l-4.7494-0.63003-1.8067 4.269c-1.2485 2.95-1.8424 7.0498-1.9223 13.269-0.0974 7.5872-0.5369 9.8634-2.7997 14.5-2.9605 6.0663-3.4587 12.381-1.6442 20.842 0.8557 3.99 0.73913 6.0427-0.60589 10.669-2.1541 7.4097-2.1814 15.535-0.0765 22.741l1.6803 5.7527-6.47 19.126 1.5757 7.6842c1.3195 6.4351 1.3724 8.497 0.32493 12.684-3.0794 12.31-3.0837 12.272 1.915 17.062 8.8793 8.5078 33.65 23.55 46.097 27.993 6.1354 2.1899 8.1272 3.8033 8.9741 7.2693 1.1772 4.8182 5.7533 19.176 6.1116 19.176 0.1925 0 1.5118-3.9375 2.9318-8.75zm-8.5944-167.17c-8.1409-8.1409 1.8733-22.853 11.993-17.62 6.6204 3.4236 7.6475 13.208 1.8945 18.049-4.2977 3.6163-10.02 3.4396-13.888-0.42872zm29.593 162.17c-0.39811-6.4625-0.81875-11.854-0.93475-11.982-0.11601-0.12733-2.4996 1.8977-5.2968 4.5-3.4249 3.1862-5.4361 6.0195-6.158 8.6753-1.2519 4.6049-0.81204 5.7213 0.94234 2.3919 0.6769-1.2846 1.7213-2.6539 2.3209-3.0429 1.5548-1.0087 6.364 3.9307 7.6649 7.8722 0.60536 1.8343 1.3447 3.335 1.643 3.335s0.21662-5.2875-0.18148-11.75zm60.469-148.42c0.02134-3.7193-0.94186-5.8318-2.6591-5.8318-0.92002 0-1.2702 0.64753-0.94633 1.75 0.28274 0.9625 0.8215 3.482 1.1972 5.5989 0.75389 4.2474 2.381 3.2223 2.4082-1.5171zm-55.579-86.168c0.66535-5.6468 0.57803-8.4047-0.32915-10.396l-1.2348-2.71-1.9373 2.4708c-3.6017 4.5936-9.9044 14.193-9.9044 15.085 0 0.48733 0.7875 0.91145 1.75 0.94249 0.9625 0.031 3.325 0.64938 5.25 1.3741 1.925 0.72471 3.95 1.228 4.5 1.1185 0.55-0.10953 1.4075-3.6577 1.9056-7.8849z"/>
</svg>
