<svg xmlns="http://www.w3.org/2000/svg" viewBox="0 0 1600 900">
  <g fill="white" stroke="#111" stroke-width="12" stroke-linecap="round" stroke-linejoin="round">
    <line x1="110" y1="760" x2="1490" y2="760"/>
    <rect x="760" y="180" width="610" height="360" rx="24"/>
    <rect x="808" y="258" width="140" height="66" rx="16"/>
    <rect x="996" y="258" width="140" height="66" rx="16"/>
    <rect x="1184" y="258" width="140" height="66" rx="16"/>
    <rect x="902" y="390" width="140" height="66" rx="16"/>
    <rect x="1090" y="390" width="140" height="66" rx="16"/>
    <line x1="948" y1="290" x2="996" y2="290"/>
    <line x1="1136" y1="290" x2="1184" y2="290"/>
    <line x1="1066" y1="324" x2="1066" y2="390"/>
    <line x1="1238" y1="324" x2="1238" y2="390"/>
    <ellipse cx="432" cy="330" rx="88" ry="108"/>
    <ellipse cx="382" cy="222" rx="24" ry="70"/>
    <ellipse cx="484" cy="222" rx="24" ry="70"/>
    <circle cx="404" cy="330" r="8"/>
    <circle cx="460" cy="330" r="8"/>
    <path d="M418 366c16 14 40 14 56 0"/>
    <path d="M322 492c0-84 48-146 112-146 72 0 112 58 112 142v166H322z"/>
    <line x1="538" y1="412" x2="760" y2="412"/>
    <polyline points="702,370 760,412 702,454"/>
    <line x1="410" y1="658" x2="358" y2="725"/>
    <line x1="484" y1="658" x2="552" y2="725"/>
    <rect x="286" y="560" width="110" height="78" rx="18"/>
    <line x1="316" y1="596" x2="370" y2="596"/>
  </g>
</svg>
