<svg xmlns="http://www.w3.org/2000/svg" viewBox="0 0 1600 900">
  <g fill="white" stroke="#111" stroke-width="12" stroke-linecap="round" stroke-linejoin="round">
    <line x1="110" y1="760" x2="1490" y2="760"/>
    <rect x="850" y="180" width="500" height="320" rx="24"/>
    <line x1="910" y1="250" x2="1080" y2="250"/>
    <line x1="910" y1="322" x2="1290" y2="322"/>
    <line x1="910" y1="394" x2="1220" y2="394"/>
    <circle cx="1248" cy="250" r="42"/>
    <path d="M1220 250h56"/>
    <path d="M1248 222v56"/>
    <rect x="920" y="546" width="360" height="76" rx="18"/>
    <line x1="972" y1="584" x2="1134" y2="584"/>
    <line x1="1182" y1="584" x2="1230" y2="584"/>
    <ellipse cx="440" cy="330" rx="88" ry="108"/>
    <ellipse cx="390" cy="222" rx="24" ry="70"/>
    <ellipse cx="492" cy="222" rx="24" ry="70"/>
    <circle cx="412" cy="330" r="8"/>
    <circle cx="468" cy="330" r="8"/>
    <path d="M426 366c16 14 40 14 56 0"/>
    <path d="M328 492c0-84 48-146 112-146 72 0 112 58 112 142v166H328z"/>
    <rect x="560" y="412" width="148" height="104" rx="18"/>
    <line x1="594" y1="450" x2="676" y2="450"/>
    <line x1="594" y1="488" x2="650" y2="488"/>
    <line x1="548" y1="506" x2="850" y2="370"/>
    <polyline points="792,332 850,370 792,408"/>
    <line x1="406" y1="658" x2="360" y2="725"/>
    <line x1="480" y1="658" x2="548" y2="725"/>
    <rect x="252" y="568" width="96" height="70" rx="16"/>
    <line x1="278" y1="604" x2="320" y2="604"/>
  </g>
</svg>
